<?xml version="1.0" encoding="UTF-8" standalone="no"?>
<!-- Created with Inkscape (http://www.inkscape.org/) -->

<svg
   width="62.733959mm"
   height="98.893646mm"
   viewBox="0 0 62.733959 98.893646"
   version="1.1"
   id="svg1"
   xml:space="preserve"
   xmlns="http://www.w3.org/2000/svg"
   xmlns:svg="http://www.w3.org/2000/svg"><defs
     id="defs1" /><g
     id="layer3"
     transform="translate(1096.0984,452.79251)"><g
       id="g7-9-7-4"
       transform="matrix(1.4128318,0,0,1.4128318,580.85051,319.49853)"><path
         id="path1-4-4-2-0-63-6-2"
         style="fill:#623079;fill-opacity:1;stroke-width:0.250837"
         d="m -846.60936,-329.18137 a 5.37849,15.789953 0 0 0 -5.37849,15.78974 5.37849,15.789953 0 0 0 0.12093,3.2091 8.7196205,9.7014875 0 0 0 -3.90416,8.07703 8.7196205,9.7014875 0 0 0 3.21169,7.4998 8.7196205,9.7014875 0 0 0 -3.21169,7.50032 8.7196205,9.7014875 0 0 0 3.21169,7.4998 8.7196205,9.7014875 0 0 0 -3.21169,7.50032 8.7196205,9.7014875 0 0 0 8.71937,9.70121 8.7196205,9.7014875 0 0 0 3.14244,-0.65422 17.314032,19.263666 0 0 0 10.33942,3.87366 17.314032,19.263666 0 0 0 10.40195,-3.87108 8.7196205,9.7014875 0 0 0 3.08043,0.65164 8.7196205,9.7014875 0 0 0 8.71937,-9.70121 8.7196205,9.7014875 0 0 0 -3.20136,-7.49205 8.7196205,9.7014875 0 0 0 3.20136,-7.50807 8.7196205,9.7014875 0 0 0 -3.20187,-7.49153 8.7196205,9.7014875 0 0 0 3.20187,-7.50859 8.7196205,9.7014875 0 0 0 -5.0152,-8.77466 4.9575458,14.386788 0 0 0 0.19482,-3.91449 4.9575458,14.386788 0 0 0 -4.95732,-14.38672 4.9575458,14.386788 0 0 0 -4.95784,14.38672 4.9575458,14.386788 0 0 0 0.10646,2.84221 17.314032,19.263666 0 0 0 -7.57215,-1.97094 17.314032,19.263666 0 0 0 -7.69255,2.04432 5.37849,15.789953 0 0 0 0.031,-1.51257 5.37849,15.789953 0 0 0 -5.37848,-15.78974 z"
         transform="translate(-331.17054,-217.44491)" /><path
         fill-rule="evenodd"
         clip-rule="evenodd"
         d="m -1163.8137,-519.85276 c 1.2265,0 2.2803,0.8445 2.5111,2.01242 l 0.1024,0.51937 c 0.4034,2.04138 2.5812,3.26043 4.6063,2.5784 l 0.5155,-0.1737 c 1.1586,-0.39019 2.4399,0.0722 3.0531,1.10213 l 0.9264,1.55546 c 0.6133,1.02985 0.3857,2.33687 -0.5422,3.11457 l -0.4127,0.34587 c -1.6219,1.35934 -1.6219,3.79746 0,5.15674 l 0.4127,0.34586 c 0.9279,0.77775 1.1555,2.08474 0.5422,3.11458 l -0.9262,1.55549 c -0.6134,1.02984 -1.8947,1.49231 -3.0534,1.1021 l -0.5152,-0.17369 c -2.0253,-0.68212 -4.2031,0.53694 -4.6065,2.57848 l -0.1024,0.51936 c -0.2307,1.16797 -1.2846,2.01249 -2.5111,2.01249 h -1.8527 c -1.2265,0 -2.2803,-0.84452 -2.5111,-2.0124 l -0.1027,-0.51969 c -0.4034,-2.0413 -2.5813,-3.26036 -4.6065,-2.57824 l -0.5151,0.17349 c -1.1587,0.39034 -2.44,-0.072 -3.0533,-1.1021 l -0.9263,-1.55531 c -0.6132,-1.0299 -0.3857,-2.3369 0.5422,-3.11462 l 0.4127,-0.34585 c 1.6218,-1.35942 1.6218,-3.79741 0,-5.15672 l -0.4127,-0.34587 c -0.9279,-0.77772 -1.1554,-2.08472 -0.5422,-3.11456 l 0.9264,-1.55547 c 0.6133,-1.02983 1.8945,-1.49235 3.0532,-1.10211 l 0.5152,0.17352 c 2.0252,0.68202 4.203,-0.53695 4.6064,-2.57828 l 0.1027,-0.51959 c 0.2308,-1.16788 1.2845,-2.01234 2.5111,-2.01234 z"
         fill="#000000"
         id="path1-61-4-0-7-7-3-0"
         style="fill:#ffffff;fill-opacity:1;stroke-width:1.18034" /></g></g></svg>
