<?xml version="1.0" encoding="UTF-8" standalone="no"?>
<!-- 
Copyright (c) Márk Csörgő and Martin Bartos
Licensed under the MIT License. See LICENSE file for details.
-->

<svg
        width="750.71796"
        height="1183.4301"
        viewBox="0 -12.02 88.746124 139.89919"
        version="1.1"
        id="svg13"
        xml:space="preserve"
        xmlns="http://www.w3.org/2000/svg"><defs
     id="defs1" />
    <g
            id="g7-9-7-4"
            transform="matrix(1.9986524,0,0,1.9986524,2372.2837,1080.4959)"><path
       id="path1-4-4-2-0-63-6-2"
       fill="#623079"
       fill-opacity="1"
       d="m -846.60936,-329.18137 a 5.37849,15.789953 0 0 0 -5.37849,15.78974 5.37849,15.789953 0 0 0 0.12093,3.2091 8.7196205,9.7014875 0 0 0 -3.90416,8.07703 8.7196205,9.7014875 0 0 0 3.21169,7.4998 8.7196205,9.7014875 0 0 0 -3.21169,7.50032 8.7196205,9.7014875 0 0 0 3.21169,7.4998 8.7196205,9.7014875 0 0 0 -3.21169,7.50032 8.7196205,9.7014875 0 0 0 8.71937,9.70121 8.7196205,9.7014875 0 0 0 3.14244,-0.65422 17.314032,19.263666 0 0 0 10.33942,3.87366 17.314032,19.263666 0 0 0 10.40195,-3.87108 8.7196205,9.7014875 0 0 0 3.08043,0.65164 8.7196205,9.7014875 0 0 0 8.71937,-9.70121 8.7196205,9.7014875 0 0 0 -3.20136,-7.49205 8.7196205,9.7014875 0 0 0 3.20136,-7.50807 8.7196205,9.7014875 0 0 0 -3.20187,-7.49153 8.7196205,9.7014875 0 0 0 3.20187,-7.50859 8.7196205,9.7014875 0 0 0 -5.0152,-8.77466 4.9575458,14.386788 0 0 0 0.19482,-3.91449 4.9575458,14.386788 0 0 0 -4.95732,-14.38672 4.9575458,14.386788 0 0 0 -4.95784,14.38672 4.9575458,14.386788 0 0 0 0.10646,2.84221 17.314032,19.263666 0 0 0 -7.57215,-1.97094 17.314032,19.263666 0 0 0 -7.69255,2.04432 5.37849,15.789953 0 0 0 0.031,-1.51257 5.37849,15.789953 0 0 0 -5.37848,-15.78974 z"
       transform="translate(-331.17054,-217.44491)" /></g>
    <g
            id="sad"
            transform="matrix(1.166698,0,0,1.1586016,-66.778143,-10.909261)"><path
   d="m 70.034306,70.774512 c 0.155718,-14.66332 9.038226,-18.35707 25.232309,-18.35212 16.208935,0.005 25.082645,3.70421 25.238905,18.35212 0.16122,15.0947 -9.19724,18.96013 -25.621871,18.89135 -16.224897,-0.0693 -25.005611,-4.16476 -24.849343,-18.89135 z"
   fill="#755085"
   fill-rule="evenodd"
   fill-opacity="1"
   id="path1"
   style="fill:#ffffff;stroke-width:0.550239" />
        <path
                d="m 88.629632,73.208222 a 0.78097596,0.78097596 0 0 1 -1.181363,-1.0218 9.8850432,9.8850432 0 0 1 1.028397,-1.0306 10.539277,10.539277 0 0 1 13.582094,0 9.9774834,9.9774834 0 0 1 1.03225,1.03115 0.78078911,0.78078911 0 0 1 -1.18081,1.0218 8.4280104,8.4280104 0 0 0 -0.87378,-0.87158 8.9732972,8.9732972 0 0 0 -11.53796,0 8.3850918,8.3850918 0 0 0 -0.868828,0.87103 z"
                style="fill:#1a1818;fill-rule:evenodd;stroke-width:0.550239"
                id="path3"/>
        <path
                d="m 82.205042,67.723432 a 3.4257879,3.4257879 0 1 0 -3.425788,-3.42578 3.4323907,3.4323907 0 0 0 3.425788,3.42578 z"
                style="fill:#1a1818;fill-rule:evenodd;stroke-width:0.550239"
                id="path4"/>/&gt;
        <path
                d="m 81.87765,64.083052 a 1.100478,1.100478 0 1 0 -1.100478,-1.10048 1.100478,1.100478 0 0 0 1.100478,1.10048 z"
                style="fill:#ffffff;fill-rule:evenodd;stroke-width:0.550239"
                id="path5"/>/&gt;
        <path
                d="m 80.723248,65.909302 a 0.68284657,0.68284657 0 1 0 -0.682846,-0.6823 0.68339681,0.68339681 0 0 0 0.682846,0.6823 z"
                style="fill:#ffffff;fill-rule:evenodd;stroke-width:0.550239"
                id="path6"/>
        <g
                id="g9"
                transform="matrix(0.55023898,0,0,0.55023898,-43.772722,22.471772)"><path
     d="m 276.439,82.24 a 6.226,6.226 0 1 0 -6.226,-6.226 6.238,6.238 0 0 0 6.226,6.226 z"
     style="fill:#1a1818;fill-rule:evenodd"
     id="path7" />
            <path
                    d="m 275.845,75.624 a 2,2 0 1 0 -2,-2 2,2 0 0 0 2,2 z"
                    style="fill:#ffffff;fill-rule:evenodd"
                    id="path8"/>
            <path
                    d="m 273.747,78.943 a 1.241,1.241 0 1 0 -1.241,-1.24 1.242,1.242 0 0 0 1.241,1.24 z"
                    style="fill:#ffffff;fill-rule:evenodd"
                    id="path9"/></g>
        <path
                d="m 83.870615,71.382522 h -3.332797 a 0.92440148,0.92440148 0 0 1 -0.64433,-1.58689 3.0318168,3.0318168 0 0 1 0.259163,-0.25256 3.1732282,3.1732282 0 0 1 4.102581,0 3.046123,3.046123 0 0 1 0.312536,0.31254 0.923301,0.923301 0 0 1 -0.697153,1.52581 z"
                style="fill:#eb505e;fill-rule:evenodd;stroke-width:0.550239"
                id="path10"/>
        <path
                d="m 110.00146,71.383622 h -3.33335 a 0.92440148,0.92440148 0 0 1 -0.63992,-1.59129 3.0708837,3.0708837 0 0 1 0.25421,-0.24706 3.1748789,3.1748789 0 0 1 4.10368,0 3.0103574,3.0103574 0 0 1 0.31198,0.30814 0.92440148,0.92440148 0 0 1 -0.6966,1.53076 z"
                style="fill:#eb505e;fill-rule:evenodd;stroke-width:0.550239"
                id="path11"/>
        <path
                d="m 82.204492,67.997452 c 1.29031,0 2.342917,-0.39452 2.342917,-0.88038 0,-0.48586 -1.052607,-0.88038 -2.342917,-0.88038 -1.290311,0 -2.342918,0.39452 -2.342918,0.88038 0,0.48586 1.049856,0.88038 2.342918,0.88038 z"
                style="fill:#00a1ed;fill-rule:evenodd;stroke-width:0.550239"
                id="path12"/>
        <path
                d="m 108.33479,67.997452 c 1.29031,0 2.34292,-0.39452 2.34292,-0.88038 0,-0.48586 -1.05261,-0.88038 -2.34292,-0.88038 -1.29031,0 -2.34347,0.39452 -2.34347,0.88038 0,0.48586 1.05261,0.88038 2.34347,0.88038 z"
                style="fill:#00a1ed;fill-rule:evenodd;stroke-width:0.550239"
                id="path13"/></g></svg>
