<?xml version="1.0" encoding="utf-8"?>
<!-- 
Copyright (c) Márk Csörgő and Martin Bartos
Licensed under the MIT License. See LICENSE file for details.
-->

<svg width="19" height="22" viewBox="0 0 19 22" fill="none" xmlns="http://www.w3.org/2000/svg">
    <path fill-rule="evenodd" clip-rule="evenodd"
          d="M11.3908 0C12.2462 0 13.0057 0.605946 13.2761 1.50429L13.8169 3.3H17.0751C17.6239 3.3 18.0687 3.79249 18.0687 4.4C18.0687 5.0075 17.6239 5.49998 17.0751 5.5L17.0726 5.57837L16.2108 18.9351C16.0994 20.6621 14.8014 22 13.2376 22H5.01481C3.45093 22 2.15295 20.6621 2.04152 18.9351L1.17974 5.57837C1.17804 5.55208 1.17719 5.52595 1.17717 5.5C0.628427 5.49998 0.183594 5.0075 0.183594 4.4C0.183594 3.79249 0.628457 3.3 1.17721 3.3H4.43553L4.97621 1.50429C5.2467 0.605946 6.00611 0 6.86147 0H11.3908ZM6.14531 8.8C5.63574 8.8 5.21577 9.22463 5.15838 9.77171L5.15169 9.9V16.5C5.15169 17.1075 5.59655 17.6 6.14531 17.6C6.65488 17.6 7.07485 17.1754 7.13225 16.6283L7.13893 16.5V9.9C7.13893 9.29247 6.69408 8.8 6.14531 8.8ZM12.107 8.8C11.5583 8.8 11.1134 9.29247 11.1134 9.9V16.5C11.1134 17.1075 11.5583 17.6 12.107 17.6C12.6558 17.6 13.1006 17.1075 13.1006 16.5V9.9C13.1006 9.29247 12.6558 8.8 12.107 8.8ZM11.3908 2.2H6.86147L6.53027 3.3H11.7221L11.3908 2.2Z"
          fill="#000000" fill-opacity="1"/>
</svg>
